<svg width="39" height="39" viewBox="0 0 39 39" fill="none" xmlns="http://www.w3.org/2000/svg">
  <rect x="0.5" y="0.5" width="38" height="38" stroke="#D84727"/>
  <path fill-rule="evenodd" clip-rule="evenodd" d="M19.0036 12.6792C19.9066 11.6216 21.6428 10 23.8 10C26.9103 10 29 12.2506 29 15.6C29 21.574 19.9772 27.7803 19.4636 28.1336L19.4536 28.1405L18.9976 28.4L18.5432 28.0838C18.5381 28.0802 18.5316 28.0757 18.5237 28.0702C17.9177 27.6504 9 21.4725 9 15.6C9 12.2506 11.0897 10 14.2 10C16.3799 10 18.1073 11.6201 19.0036 12.6792ZM9.79997 15.6C9.79997 21.2 19 27.427 19 27.427V27.4271C19 27.4271 28.2 21.2668 28.2 15.6C28.2 12.8 26.6 10.8 23.8 10.8C21.0666 10.8 19 14 19 14C19 14 16.9666 10.8 14.2 10.8C11.4 10.8 9.79997 12.8 9.79997 15.6Z" fill="#D84727"/>
</svg>