<svg id="Icons" height="512" viewBox="0 0 74 74" width="512" xmlns="http://www.w3.org/2000/svg"><path d="m50 72h-26a7 7 0 0 1 -7-7v-44a1 1 0 0 1 1-1h38a1 1 0 0 1 1 1v44a7 7 0 0 1 -7 7zm-31-50v43a5 5 0 0 0 5 5h26a5 5 0 0 0 5-5v-43z"/><path d="m18 64h38v2h-38z"/><path d="m48 32a4 4 0 1 1 4-4 4 4 0 0 1 -4 4zm0-6a2 2 0 1 0 2 2 2 2 0 0 0 -2-2z"/><path d="m26 32a4 4 0 1 1 4-4 4 4 0 0 1 -4 4zm0-6a2 2 0 1 0 2 2 2 2 0 0 0 -2-2z"/><path d="m27.21 25.1-2-.19c.79-8.55 3.44-22.91 11.79-22.91s11 14.36 11.78 22.91l-2 .19c-.47-4.95-2.56-21.1-9.78-21.1s-9.31 16.15-9.79 21.1z"/></svg>